<?xml version="1.0" encoding="UTF-8" standalone="no"?><!DOCTYPE svg PUBLIC "-//W3C//DTD SVG 1.1//EN" "http://www.w3.org/Graphics/SVG/1.1/DTD/svg11.dtd"><svg width="121" height="121" viewBox="0 0 121 121" version="1.1" xmlns="http://www.w3.org/2000/svg" xmlns:xlink="http://www.w3.org/1999/xlink" xml:space="preserve" xmlns:serif="http://www.serif.com/" style="fill-rule:evenodd;clip-rule:evenodd;stroke-linejoin:round;stroke-miterlimit:2;"><rect id="rriver-logo-mark-white" x="0" y="0" width="120.012" height="120.012" style="fill:#246295;"/><g><path d="M22.031,44.332c-0.01,-0.329 -0.006,-0.664 0.01,-1.003c0.568,-12.102 8.842,-23.459 20.535,-27.584c3.313,-1.169 6.847,-1.752 10.338,-1.745c11.098,0.064 21.984,6.512 27.241,16.616c4.949,9.512 4.478,21.614 -1.383,30.774c-2.692,4.208 -6.457,7.768 -10.759,10.214c-0.124,0.071 -0.25,0.136 -0.379,0.196c-0.407,0.291 -0.817,0.576 -1.195,0.875c-4.52,3.578 -6.175,10.36 -3.673,15.632c2.767,5.83 10.267,9.077 16.669,6.369c5.844,-2.473 9.248,-9.605 7.253,-15.859c0,0 -0.422,-1.686 -0.077,-2.994c0.833,-3.161 4.986,-5.002 7.939,-3.229c1.555,0.934 2.34,2.689 2.803,4.581c1.704,6.963 0.023,14.683 -4.453,20.307c-6.57,8.257 -18.919,11.31 -28.713,6.589c-7.092,-3.419 -12.254,-10.588 -13.2,-18.425c-1.082,-8.963 3.445,-18.312 11.225,-23.056c0.022,-0.014 0.044,-0.029 0.066,-0.043c2.596,-1.674 5.118,-3.587 6.917,-6.115c3.893,-5.471 4.784,-12.948 2.223,-19.212c-3.863,-9.449 -15.563,-15.144 -25.854,-11.156c-7.46,2.891 -12.812,10.548 -12.843,18.677c0,0 -0.001,0.011 -0.002,0.03l0.002,0.08l0,49.305c-0.001,0.033 -0.003,0.065 -0.004,0.098c0.006,0.045 0.012,0.091 0.018,0.136c0.188,1.378 2.995,1.879 2.999,-0.22l0.001,-0.005l-0.001,-0.009l0,-49.305c0.013,-0.412 0.033,-0.682 0.063,-0.887c0.008,-1.318 0.252,-2.709 0.645,-4.03c2.059,-6.918 8.711,-12.131 16.257,-12.204c0.112,0 0.112,0 0.224,0c6.581,0.064 12.875,4.156 15.537,10.238c2.208,5.043 1.789,11.144 -1.148,15.859c-1.607,2.581 -3.874,4.784 -6.616,6.128c-3.302,1.619 -8.032,-1.159 -7.698,-5.248c0.154,-1.873 1.449,-3.466 3.084,-4.442c2.51,-1.528 3.759,-4.866 2.678,-7.718c-1.239,-3.268 -5.463,-5.036 -8.703,-3.476c-2.139,1.03 -3.603,3.3 -3.608,5.747l-0.001,0.011l0.001,0.022l0,49.305c-0.001,0.028 -0.002,0.057 -0.003,0.085c0.001,0.084 0.001,0.168 -0.001,0.252c-0.136,5.377 -4.266,10.431 -9.534,11.613c-5.367,1.206 -11.337,-1.492 -13.79,-6.823c-0.651,-1.414 -1.062,-3.014 -1.082,-4.535c-0.028,-0.243 -0.025,-0.324 -0.033,-0.592l0,-49.305c0.007,-0.24 0.005,-0.33 0.025,-0.519Zm61.711,16.893c3.326,0 6.027,2.701 6.027,6.028c0,3.327 -2.701,6.028 -6.027,6.028c-3.327,0 -6.027,-2.701 -6.027,-6.028c0,-3.327 2.7,-6.028 6.027,-6.028Z" style="fill:#fff;fill-rule:nonzero;"/></g></svg>